<!--?xml version="1.0" standalone="no"?-->
              <svg id="sw-js-blob-svg" viewBox="0 0 100 100" xmlns="http://www.w3.org/2000/svg" version="1.1">
                    <defs> 
                        <linearGradient id="sw-gradient" x1="0" x2="1" y1="1" y2="0">
                            <stop id="stop1" stop-color="rgba(13.075, 15.699, 17.147, 1)" offset="0%"></stop>
                            <stop id="stop2" stop-color="rgba(106.138, 122.21, 128.71, 1)" offset="100%"></stop>
                        </linearGradient>
                    </defs>
                <path fill="url(#sw-gradient)" d="M18.4,-25.3C25.9,-23.8,35.6,-22.2,39.6,-17C43.6,-11.8,42,-3,38.8,4.2C35.6,11.4,30.7,16.9,26.2,23.3C21.6,29.8,17.3,37.1,11,40.1C4.7,43.1,-3.6,41.7,-10.5,38.5C-17.5,35.2,-23,30,-27.1,24.1C-31.2,18.3,-33.8,11.8,-34.6,5.1C-35.5,-1.6,-34.6,-8.5,-31.4,-13.9C-28.2,-19.2,-22.8,-23.1,-17.1,-25.5C-11.5,-27.9,-5.8,-29,-0.2,-28.7C5.4,-28.5,10.9,-26.9,18.4,-25.3Z" width="100%" height="100%" transform="translate(50 50)" stroke-width="0" style="transition: 0.3s;" stroke="url(#sw-gradient)"></path>
              </svg>